<?xml version="1.0" encoding="UTF-8"?>
<svg width="113px" height="25px" viewBox="0 0 113 25" version="1.1" xmlns="http://www.w3.org/2000/svg">
    <!-- Generator: Sketch 40.3 (33839) - http://www.bohemiancoding.com/sketch -->
    <title>Group 19 Copy</title>
    <desc>Created with Sketch.</desc>
    <defs></defs>
    <g id="首页" stroke="none" stroke-width="1" fill="none" fill-rule="evenodd">
        <g id="Group-19-Copy" transform="translate(1.000000, 0.000000)">
            <path d="M31.921875,20.8125 L31.921875,23.109375 C31.8906248,23.5781273 32.1562472,23.7968752 32.71875,23.765625 L33.140625,23.765625 L33.140625,24 L30.328125,24 L30.328125,23.765625 C30.8906278,23.7968752 31.1562502,23.5000031 31.125,22.875 L31.125,20.109375 L30.328125,19.828125 L30.328125,19.59375 L31.6875,19.125 L31.921875,19.125 L31.921875,20.390625 C32.4531277,19.4531203 32.8437488,19.0468744 33.09375,19.171875 C33.1562503,19.171875 33.2499994,19.2031247 33.375,19.265625 C33.4062502,19.2968752 33.4374998,19.3125 33.46875,19.3125 C33.6250008,19.3437502 33.8437486,19.3906247 34.125,19.453125 L33.84375,20.203125 C33.8124998,20.203125 33.7812502,20.1875002 33.75,20.15625 C33.6249994,20.15625 33.4375012,20.1093755 33.1875,20.015625 C33.0624994,19.9218745 32.9218758,19.875 32.765625,19.875 C32.5781241,19.875 32.4218756,19.9843739 32.296875,20.203125 C32.1406242,20.3906259 32.0156255,20.5937489 31.921875,20.8125 L31.921875,20.8125 Z M38.859375,20.953125 L35.34375,20.953125 L35.34375,21.1875 C35.3124998,21.3125006 35.296875,21.4062497 35.296875,21.46875 C35.3906255,22.7187562 35.9999944,23.4062494 37.125,23.53125 C37.718753,23.53125 38.2343728,23.2812525 38.671875,22.78125 L38.765625,22.921875 C38.1406219,23.6718788 37.4375039,24.046875 36.65625,24.046875 C35.3437434,23.9531245 34.6406255,23.1718823 34.546875,21.703125 C34.6718756,20.0781169 35.4531178,19.2187505 36.890625,19.125 C37.6718789,19.125 38.2343733,19.4843714 38.578125,20.203125 C38.6718755,20.4531263 38.7656245,20.6093747 38.859375,20.671875 L38.859375,20.953125 Z M35.390625,20.625 L37.828125,20.625 C37.6718742,19.8437461 37.2812531,19.4218753 36.65625,19.359375 C36.0312469,19.3906252 35.6093761,19.8124959 35.390625,20.625 L35.390625,20.625 Z M40.59375,20.296875 L39.796875,20.671875 C39.7656248,20.6093747 39.75,20.5625002 39.75,20.53125 C40.0937517,19.7499961 40.6874958,19.2812508 41.53125,19.125 C42.0625027,19.1562502 42.4843734,19.3593731 42.796875,19.734375 C42.9218756,19.8906258 42.9687502,20.2343723 42.9375,20.765625 L42.9375,22.40625 C42.9062498,23.3125045 43.0156238,23.7031256 43.265625,23.578125 C43.4218758,23.6093752 43.6249988,23.5156261 43.875,23.296875 L43.921875,23.484375 C43.3906223,23.8593769 42.9843764,24.046875 42.703125,24.046875 C42.3593733,24.046875 42.1875,23.8281272 42.1875,23.390625 C41.5312467,23.8906275 41.0625014,24.1093753 40.78125,24.046875 C40.0624964,24.046875 39.6875002,23.750003 39.65625,23.15625 C39.6249998,22.562497 40.0937452,22.1718759 41.0625,21.984375 C41.3437514,21.9531248 41.7031228,21.7968764 42.140625,21.515625 L42.140625,20.578125 C42.1718752,20.2343733 42.1093758,19.9843758 41.953125,19.828125 C41.7656241,19.6093739 41.5468762,19.4843752 41.296875,19.453125 C40.8593728,19.4843752 40.6093753,19.6874981 40.546875,20.0625 C40.546875,20.0937502 40.5624998,20.1718744 40.59375,20.296875 L40.59375,20.296875 Z M42.140625,23.203125 L42.140625,21.75 C41.9843742,21.8437505 41.7500016,21.9687492 41.4375,22.125 C40.7187464,22.3437511 40.3906247,22.6406231 40.453125,23.015625 C40.4843752,23.4531272 40.7187478,23.6874998 41.15625,23.71875 C41.2812506,23.7500002 41.6093723,23.5781269 42.140625,23.203125 L42.140625,23.203125 Z M48.28125,19.359375 L48.28125,17.015625 C48.3125002,16.8281241 48.1562517,16.7187502 47.8125,16.6875 L47.390625,16.640625 L47.390625,16.40625 L49.078125,15.9375 L49.078125,22.96875 C49.078125,23.3437519 49.2656231,23.4843755 49.640625,23.390625 L49.921875,23.296875 L49.921875,23.53125 L48.421875,24.046875 L48.28125,24.046875 L48.28125,23.296875 C47.4999961,23.8281277 46.8750023,24.0781252 46.40625,24.046875 C45.2187441,23.9531245 44.5781255,23.2187569 44.484375,21.84375 C44.6406258,20.1562416 45.515617,19.2500006 47.109375,19.125 C47.515627,19.125 47.9062481,19.2031242 48.28125,19.359375 L48.28125,19.359375 Z M48.28125,23.015625 L48.28125,20.34375 C47.874998,19.7187469 47.3906278,19.4218748 46.828125,19.453125 C45.8593702,19.5156253 45.3437503,20.1718688 45.28125,21.421875 C45.3750005,22.7656317 45.8906203,23.4999994 46.828125,23.625 C47.234377,23.5937498 47.7187472,23.3906269 48.28125,23.015625 L48.28125,23.015625 Z M51.890625,20.34375 L51.890625,22.96875 C51.8281247,23.562503 52.093747,23.8281253 52.6875,23.765625 L52.6875,24 L50.296875,24 L50.296875,23.765625 C50.8281277,23.7343748 51.09375,23.4843773 51.09375,23.015625 L51.09375,20.484375 C51.1250002,20.1093731 51.0000014,19.921875 50.71875,19.921875 L50.296875,19.828125 L50.296875,19.640625 L51.703125,19.125 L51.890625,19.125 L51.890625,20.0625 C52.8593798,19.4062467 53.546873,19.0937498 53.953125,19.125 C54.7968792,19.1562502 55.21875,19.7499942 55.21875,20.90625 C55.21875,21.8750048 55.1875003,22.6406222 55.125,23.203125 C55.125,23.1718748 55.125,23.2031245 55.125,23.296875 C55.0937498,23.6093766 55.3281225,23.765625 55.828125,23.765625 L56.0625,23.765625 L56.0625,24 L53.484375,24 L53.484375,23.765625 C53.7968766,23.765625 54.0312492,23.6875008 54.1875,23.53125 C54.3750009,23.4999998 54.4531252,22.6093837 54.421875,20.859375 C54.421875,20.0468709 54.1093781,19.6250002 53.484375,19.59375 C53.1406233,19.59375 52.6093786,19.8437475 51.890625,20.34375 L51.890625,20.34375 Z M56.765625,21.65625 C56.8593755,20.1249923 57.7187419,19.2812508 59.34375,19.125 C60.937508,19.2500006 61.7968744,20.0937422 61.921875,21.65625 C61.7968744,23.1562575 60.9531328,23.9531245 59.390625,24.046875 C57.7656169,23.9531245 56.8906256,23.1562575 56.765625,21.65625 L56.765625,21.65625 Z M57.65625,21.234375 C57.7500005,22.8593831 58.3593694,23.7343744 59.484375,23.859375 C60.4531298,23.7343744 60.9687497,23.0937558 61.03125,21.9375 C60.9062494,20.4062423 60.2812556,19.5625008 59.15625,19.40625 C58.2499955,19.5312506 57.7500005,20.1406195 57.65625,21.234375 L57.65625,21.234375 Z M65.53125,24 L65.15625,24 L63.421875,20.109375 C63.2656242,19.703123 63.0937509,19.5156248 62.90625,19.546875 L62.53125,19.453125 L62.53125,19.265625 L64.96875,19.265625 L64.96875,19.453125 C64.562498,19.4843752 64.3281253,19.5468745 64.265625,19.640625 C64.1718745,19.7031253 64.1874994,19.8749986 64.3125,20.15625 L65.578125,23.15625 L66.796875,20.34375 C67.0781264,19.8437475 66.8281289,19.5468755 66.046875,19.453125 L66.046875,19.265625 L68.109375,19.265625 L68.109375,19.453125 C67.703123,19.5156253 67.3906261,19.8124973 67.171875,20.34375 L65.53125,24 Z M73.03125,20.953125 L69.515625,20.953125 L69.515625,21.1875 C69.4843748,21.3125006 69.46875,21.4062497 69.46875,21.46875 C69.5625005,22.7187562 70.1718694,23.4062494 71.296875,23.53125 C71.890628,23.53125 72.4062478,23.2812525 72.84375,22.78125 L72.9375,22.921875 C72.3124969,23.6718788 71.6093789,24.046875 70.828125,24.046875 C69.5156184,23.9531245 68.8125005,23.1718823 68.71875,21.703125 C68.8437506,20.0781169 69.6249928,19.2187505 71.0625,19.125 C71.8437539,19.125 72.4062483,19.4843714 72.75,20.203125 C72.8437505,20.4531263 72.9374995,20.6093747 73.03125,20.671875 L73.03125,20.953125 Z M69.5625,20.625 L72,20.625 C71.8437492,19.8437461 71.4531281,19.4218753 70.828125,19.359375 C70.2031219,19.3906252 69.7812511,19.8124959 69.5625,20.625 L69.5625,20.625 Z M75.28125,15.9375 L75.28125,23.0625 C75.28125,23.5312523 75.5156227,23.765625 75.984375,23.765625 L76.171875,23.765625 L76.171875,24 L73.5,24 L73.5,23.765625 C74.1875034,23.7968752 74.5156252,23.5312528 74.484375,22.96875 L74.484375,17.15625 C74.5156252,16.8437484 74.3906264,16.6875 74.109375,16.6875 L73.546875,16.640625 L73.546875,16.40625 L75.09375,15.9375 L75.28125,15.9375 Z M77.8125,23.015625 C78.1875019,23.0468752 78.3906248,23.2343733 78.421875,23.578125 C78.421875,23.8906266 78.218752,24.046875 77.8125,24.046875 C77.4374981,24.0156248 77.2343752,23.8593764 77.203125,23.578125 C77.2343752,23.2343733 77.4374981,23.0468752 77.8125,23.015625 L77.8125,23.015625 Z M83.859375,22.78125 L84.046875,22.875 C83.5468725,23.6562539 82.8437545,24.046875 81.9375,24.046875 C80.7187439,24.0156248 80.0468756,23.2812572 79.921875,21.84375 C80.0781258,20.1874917 80.9999916,19.2812508 82.6875,19.125 C83.5000041,19.1562502 83.9374997,19.374998 84,19.78125 C84,20.0312513 83.8906261,20.15625 83.671875,20.15625 C83.4843741,20.15625 83.2656262,20.0312513 83.015625,19.78125 C82.7343736,19.5312487 82.4843761,19.40625 82.265625,19.40625 C81.3281203,19.5312506 80.8125005,20.2499934 80.71875,21.5625 C80.7812503,22.8750066 81.3437447,23.5781245 82.40625,23.671875 C82.9687528,23.671875 83.453123,23.375003 83.859375,22.78125 L83.859375,22.78125 Z M85.03125,21.65625 C85.1250005,20.1249923 85.9843669,19.2812508 87.609375,19.125 C89.203133,19.2500006 90.0624994,20.0937422 90.1875,21.65625 C90.0624994,23.1562575 89.2187578,23.9531245 87.65625,24.046875 C86.0312419,23.9531245 85.1562506,23.1562575 85.03125,21.65625 L85.03125,21.65625 Z M85.921875,21.234375 C86.0156255,22.8593831 86.6249944,23.7343744 87.75,23.859375 C88.7187548,23.7343744 89.2343747,23.0937558 89.296875,21.9375 C89.1718744,20.4062423 88.5468806,19.5625008 87.421875,19.40625 C86.5156205,19.5312506 86.0156255,20.1406195 85.921875,21.234375 L85.921875,21.234375 Z M92.625,20.296875 L92.625,23.015625 C92.5624997,23.5781278 92.8437469,23.8281253 93.46875,23.765625 L93.46875,24 L90.9375,24 L90.9375,23.765625 C91.5625031,23.7968752 91.8593752,23.4843783 91.828125,22.828125 L91.828125,20.484375 C91.8593752,20.078123 91.7343764,19.875 91.453125,19.875 L90.984375,19.828125 L90.984375,19.640625 L92.4375,19.125 L92.625,19.125 L92.625,20.0625 C93.4687542,19.468747 94.1718722,19.1562502 94.734375,19.125 C95.328128,19.1562502 95.7187491,19.468747 95.90625,20.0625 C95.9687503,20.0312498 96.0624994,19.9687505 96.1875,19.875 C97.0312542,19.3437473 97.6406231,19.0937498 98.015625,19.125 C98.8281291,19.125 99.234375,19.7187441 99.234375,20.90625 C99.234375,21.7187541 99.2187502,22.4999963 99.1875,23.25 C99.2187502,23.5937517 99.4218731,23.765625 99.796875,23.765625 L100.171875,23.765625 L100.171875,24 L97.5,24 L97.5,23.765625 L97.59375,23.765625 C97.9062516,23.765625 98.1093745,23.7187505 98.203125,23.625 C98.3593758,23.5312495 98.4218752,22.9531303 98.390625,21.890625 L98.390625,20.953125 C98.390625,20.0468705 98.093753,19.59375 97.5,19.59375 C97.1562483,19.59375 96.6250036,19.8124978 95.90625,20.25 L95.90625,23.015625 C95.8437497,23.5781278 96.0937472,23.8281253 96.65625,23.765625 L96.65625,24 L94.171875,24 L94.171875,23.765625 C94.8281283,23.7968752 95.1406252,23.4843783 95.109375,22.828125 L95.109375,20.625 C95.0781248,19.9687467 94.7812528,19.6250002 94.21875,19.59375 C93.812498,19.59375 93.2812533,19.8281227 92.625,20.296875 L92.625,20.296875 Z" id="readnovel.com" fill="#808080"></path>
            <g id="Group-42" transform="translate(0.000000, 1.000000)" stroke="#FF3955" stroke-width="1.5" stroke-linecap="round" stroke-linejoin="round">
                <path d="M0,1.99791312 C0,0.894496173 0.886554837,0 2.00591905,0 L5.49832438,0 C6.32767692,0 7.39672124,0.54549171 7.88670635,1.21922123 L14.1132936,9.78077877 C14.603008,10.4541361 14.6432453,11.5606145 14.197011,12.2618399 L8.80298901,20.7381601 C8.35951042,21.435055 7.33168447,22 6.49526119,22 L1.99810135,22 C0.894580447,22 0,21.1017394 0,20.0020869 L0,17.498576 C0,16.6709353 0.420509875,15.4743627 0.937822282,14.8277221 L3.375,11.78125 C3.72017797,11.3497775 3.7250638,10.6563298 3.375,10.21875 L0.937822282,7.17227785 C0.419877338,6.52484667 0,5.33497024 0,4.50142398 L0,1.99791312 Z" id="Path-27"></path>
                <path d="M7.49232922,1.99791312 C7.49232922,0.894496173 8.37888406,0 9.49824827,0 L12.9906536,0 C13.8200061,0 14.8890505,0.54549171 15.3790356,1.21922123 L21.6056229,9.78077877 C22.0953373,10.4541361 22.1355746,11.5606145 21.6893402,12.2618399 L16.2953182,20.7381601 C15.8518396,21.435055 14.8240137,22 13.9875904,22 L9.49043057,22 C8.38690967,22 7.49232922,21.1017394 7.49232922,20.0020869 L7.49232922,17.498576 C7.49232922,16.6709353 7.91283909,15.4743627 8.4301515,14.8277221 L10.8673292,11.78125 C11.2125072,11.3497775 11.217393,10.6563298 10.8673292,10.21875 L8.4301515,7.17227785 C7.91220656,6.52484667 7.49232922,5.33497024 7.49232922,4.50142398 L7.49232922,1.99791312 Z" id="Path-27" transform="translate(14.746165, 11.000000) scale(-1, 1) translate(-14.746165, -11.000000) "></path>
            </g>
            <g id="Group-5" transform="translate(29.000000, 0.000000)">
                <g id="Group-44">
                    <rect id="Rectangle-35" fill="#000000" opacity="0" x="0" y="0" width="16" height="16"></rect>
                    <path d="M8,1 L8,13.003683 C8,13.8300761 7.33420277,14.3890338 6.51757777,14.2529296 L5,14" id="Path-30" stroke="#191919" stroke-linecap="round" stroke-linejoin="round"></path>
                    <path d="M4,5 L1,12" id="Path-31" stroke="#191919" stroke-linecap="round" stroke-linejoin="round"></path>
                    <path d="M12,5 L15,12" id="Path-32" stroke="#191919" stroke-linecap="round" stroke-linejoin="round"></path>
                </g>
                <g id="Group-45" transform="translate(17.000000, 0.000000)">
                    <rect id="Rectangle-35-Copy" fill="#000000" opacity="0" x="0" y="0" width="16" height="16"></rect>
                    <path d="M7.00342274,3.5 C6.72539004,3.5 6.5,3.71505737 6.5,3.99047852 L6.5,7.00952148 C6.5,7.28040529 6.73290253,7.5 7.00342274,7.5 L12.9965773,7.5 C13.27461,7.5 13.5,7.28494263 13.5,7.00952148 L13.5,3.99047852 C13.5,3.71959471 13.2670975,3.5 12.9965773,3.5 L7.00342274,3.5 Z" id="Path-33" stroke="#191919" stroke-linecap="round" stroke-linejoin="round"></path>
                    <path d="M7.5,0.5 L9,3" id="Path-34" stroke="#191919" stroke-linecap="round" stroke-linejoin="round"></path>
                    <path d="M11.5,0.5 L13,3" id="Path-34" stroke="#191919" stroke-linecap="round" stroke-linejoin="round" transform="translate(12.250000, 1.750000) scale(-1, 1) translate(-12.250000, -1.750000) "></path>
                    <path d="M2,1.5 L4,3.5" id="Path-36" stroke="#191919" stroke-linecap="round" stroke-linejoin="round"></path>
                    <path d="M1,5.5 L3.5,5.5 L3.5,14 C4.5,14 5.5,11 5.5,11" id="Path-37" stroke="#191919" stroke-linecap="round" stroke-linejoin="round"></path>
                    <path d="M8.5,8 C8.5,8 8.5,11.5 7.5,13 C6.5,14.5 5.5,14.5 5.5,14.5" id="Path-38" stroke="#191919" stroke-linecap="round" stroke-linejoin="round"></path>
                    <path d="M11.5,8 L11.5,14.0007488 C11.5,14.2764776 11.7288818,14.5 12.0013428,14.5 C12.0013428,14.5 12,14.5 13,14.5 C14,14.5 14.5,14 14.5,13 C14.5,12 14.5,11 14.5,11" id="Path-39" stroke="#191919" stroke-linecap="round" stroke-linejoin="round"></path>
                </g>
                <g id="Group-46" transform="translate(34.000000, 0.000000)">
                    <rect id="Rectangle-35-Copy-2" fill="#000000" opacity="0" x="0" y="0" width="16" height="16"></rect>
                    <path d="M2.5,0.5 L4,2.5" id="Path-40" stroke="#191919" stroke-linecap="round" stroke-linejoin="round"></path>
                    <path d="M1.5,3 L1.5,14.5" id="Path-41" stroke="#191919" stroke-linecap="round" stroke-linejoin="round"></path>
                    <path d="M6.5,1.5 L13.5029699,1.5 C14.0536144,1.5 14.5,1.94748943 14.5,2.49850233 L14.5,13.5014977 C14.5,14.0529553 14.0573397,14.5 13.5010434,14.5 L11.5,14.5" id="Path-42" stroke="#191919" stroke-linecap="round" stroke-linejoin="round"></path>
                    <path d="M6,3 L6.5,4.5" id="Path-43" stroke="#191919" stroke-linecap="round" stroke-linejoin="round"></path>
                    <path d="M10,3 L9.5,4.5" id="Path-44" stroke="#191919" stroke-linecap="round" stroke-linejoin="round"></path>
                    <path d="M11.4995642,5 C11.7759472,5 12,5.2157526 12,5.49538898 L12,7.50461102 C12,7.7782068 11.7692032,8 11.4995642,8 L4.50043583,8 C4.22405275,8 4,7.7842474 4,7.50461102 L4,5.49538898 C4,5.2217932 4.23079681,5 4.50043583,5 L11.4995642,5 Z" id="Path-45" stroke="#191919" stroke-linecap="round" stroke-linejoin="round"></path>
                    <path d="M6.5,8.5 C6.5,8.5 6.5,10 5.5,11 C4.5,12 3.5,12.5 3.5,12.5" id="Path-46" stroke="#191919" stroke-linecap="round" stroke-linejoin="round"></path>
                    <path d="M9.5,8.5 L9.5,12.0095215 C9.5,12.2804053 9.73071289,12.5 10.0059123,12.5 L10.9975592,12.5 C11.551192,12.5 12.1109662,12.0561352 12.2441411,11.5234356 L12.5,10.5" id="Path-47" stroke="#191919" stroke-linecap="round" stroke-linejoin="round"></path>
                </g>
                <g id="Group-47" transform="translate(51.000000, 0.000000)">
                    <rect id="Rectangle-35-Copy-3" fill="#000000" opacity="0" x="0" y="0" width="16" height="16"></rect>
                    <path d="M2,1 L4,3" id="Path-36" stroke="#191919" stroke-linecap="round" stroke-linejoin="round"></path>
                    <path d="M1,5.5 L3.5,5.5 L3.5,14 C4.5,14 5.5,11.5 5.5,11.5" id="Path-37" stroke="#191919" stroke-linecap="round" stroke-linejoin="round"></path>
                    <path d="M10.5,0.5 L10.5,4.5" id="Path-48" stroke="#191919" stroke-linecap="round" stroke-linejoin="round"></path>
                    <path d="M6.5,2.5 L14.5,2.5 L6.5,2.5 Z" id="Path-49" stroke="#191919" stroke-linecap="round" stroke-linejoin="round"></path>
                    <path d="M5.5,4.5 L14.9903505,4.5 C15.2718221,4.5 15.4573703,4.71314859 15.403595,4.98202515 L15,7" id="Path-50" stroke="#191919" stroke-linecap="round" stroke-linejoin="round"></path>
                    <path d="M11.5,6 C11.5,6 11.5,7.5 11.5,10 C11.5,12.5 6,14.5 6,14.5" id="Path-51" stroke="#191919" stroke-linecap="round" stroke-linejoin="round"></path>
                    <path d="M5.5,9.5 L15.5,9.5" id="Path-52" stroke="#191919" stroke-linecap="round" stroke-linejoin="round"></path>
                    <path d="M8.5,6 L10.5,7.5" id="Path-53" stroke="#191919" stroke-linecap="round" stroke-linejoin="round"></path>
                    <path d="M6.5,7.5 L8,8.5" id="Path-54" stroke="#191919" stroke-linecap="round" stroke-linejoin="round"></path>
                    <path d="M11.5,11 C11.5,11 12.5,11.5 13.5,12.5 C14.5,13.5 15,14.5 15,14.5" id="Path-55" stroke="#191919" stroke-linecap="round" stroke-linejoin="round"></path>
                </g>
                <g id="Group-48" transform="translate(68.000000, 0.000000)">
                    <rect id="Rectangle-35-Copy-4" fill="#000000" opacity="0" x="0" y="0" width="16" height="16"></rect>
                    <path d="M1.5,14.5 L1.5,2.49850233 C1.5,1.94704472 1.94748943,1.5 2.49850233,1.5 L13.5014977,1.5 C14.0529553,1.5 14.5,1.94748943 14.5,2.49850233 L14.5,13.5014977 C14.5,14.0529553 14.0573397,14.5 13.5010434,14.5 L11.5,14.5" id="Path-57" stroke="#191919" stroke-linecap="round" stroke-linejoin="round"></path>
                    <path d="M3.5,4 C3.5,4 4.5,5.5 5.5,7.5 C6.5,9.5 7,11 7,11" id="Path-58" stroke="#191919" stroke-linecap="round" stroke-linejoin="round"></path>
                    <path d="M7,3 C7,3 6.5,5.5 5.5,8 C4.5,10.5 3,12 3,12" id="Path-59" stroke="#191919" stroke-linecap="round" stroke-linejoin="round"></path>
                    <path d="M9,4 C9,4 10,5.5 11,7.5 C12,9.5 12.5,11 12.5,11" id="Path-58" stroke="#191919" stroke-linecap="round" stroke-linejoin="round"></path>
                    <path d="M12.5,3 C12.5,3 12,5.5 11,8 C10,10.5 8.5,12.5 8.5,12.5" id="Path-59" stroke="#191919" stroke-linecap="round" stroke-linejoin="round"></path>
                </g>
            </g>
        </g>
    </g>
</svg>